<svg xmlns="http://www.w3.org/2000/svg" xmlns:svg="http://www.w3.org/2000/svg" xmlns:xlink="http://www.w3.org/1999/xlink" id="svg380" width="240" height="240" version="1.1" viewBox="0 0 247.612 197.205"><metadata id="metadata386"/><defs id="defs384"><linearGradient id="linearGradient97" x1="34.048" x2="103.195" y1="5.841" y2="5.841" gradientTransform="scale(0.76639005,1.3048186)" gradientUnits="userSpaceOnUse" xlink:href="#e3e56f10-a123-2f57-2e2e-c111bcd2a8ac"/><linearGradient id="linearGradient99" x1="26.438" x2="52.679" y1="49.281" y2="49.281" gradientTransform="scale(0.99352363,1.0065186)" gradientUnits="userSpaceOnUse" xlink:href="#e3e56f10-a123-2f57-2e2e-c111bcd2a8ac"/><linearGradient id="linearGradient101" x1="37.677" x2="45.981" y1="21.677" y2="21.677" gradientUnits="userSpaceOnUse" xlink:href="#e3e56f10-a123-2f57-2e2e-c111bcd2a8ac"/><linearGradient id="linearGradient103" x1="59.374" x2="67.678" y1="21.677" y2="21.677" gradientUnits="userSpaceOnUse" xlink:href="#e3e56f10-a123-2f57-2e2e-c111bcd2a8ac"/><linearGradient id="linearGradient105" x1="9.585" x2="38.519" y1="4.382" y2="4.382" gradientTransform="scale(2.1910319,0.45640595)" gradientUnits="userSpaceOnUse" xlink:href="#e3e56f10-a123-2f57-2e2e-c111bcd2a8ac"/><linearGradient id="linearGradient107" x1="25.821" x2="103.772" y1="1.627" y2="1.627" gradientTransform="scale(0.81328936,1.2295747)" gradientUnits="userSpaceOnUse" xlink:href="#e3e56f10-a123-2f57-2e2e-c111bcd2a8ac"/><linearGradient id="linearGradient109" x1="25.821" x2="103.772" y1="1.627" y2="1.627" gradientTransform="scale(0.81328936,1.2295747)" gradientUnits="userSpaceOnUse" xlink:href="#e3e56f10-a123-2f57-2e2e-c111bcd2a8ac"/></defs><rect id="rect357" width="300" height="300" x="-38.955" y="54.436" class="logo-background-square" style="fill:none"/><linearGradient id="e3e56f10-a123-2f57-2e2e-c111bcd2a8ac" x1="0" x2="1" y1="0" y2="0" gradientTransform="rotate(25)"><stop style="stop-color:#01648b;stop-opacity:1" id="stop362" offset="0%"/><stop style="stop-color:#5bd0a4;stop-opacity:1" id="stop364" offset="100%"/></linearGradient><g id="2339580b-fc11-aabe-a3a4-57085db0e099" transform="matrix(0.71647898,0,0,0.71647898,11.37612,-6.9442334)" style="fill:url(#linearGradient109);stroke:none"><svg id="svg377" width="300" height="300" version="1.1" viewBox="0 0 100 100" style="fill:url(#linearGradient107)"><path id="path367" d="m 52.508,97.847 c 0,-4.802 -1.304,-9.296 -3.568,-13.16 a 55.207,55.207 0 0 1 -21.99,4.55 c -0.202,0 -0.402,-0.003 -0.603,-0.007 l -0.133,-0.002 c -0.041,-0.002 -0.08,-0.012 -0.12,-0.015 v 8.634 z M 71.362,15.171 A 25.983,25.983 0 0 0 53.018,7.622 c -0.114,0 -0.228,0.003 -0.341,0.005 -0.113,-10e-4 -0.227,-0.005 -0.342,-0.005 -7.133,0 -13.593,2.867 -18.301,7.509 v 0.075 c -0.026,0 -0.049,-0.003 -0.075,-0.003 -4.751,4.722 -7.694,11.262 -7.694,18.49 v 12.506 h 29.434 l 0.035,3.368 10e-4,0.108 0.003,0.27 c 0,16.25 -13.221,29.473 -29.474,29.473 v 6.408 c 0.228,0.004 0.454,0.008 0.683,0.008 28.796,0 52.141,-23.343 52.141,-52.14 h -0.002 c 0,-7.227 -2.94,-13.766 -7.69,-18.487 l -0.035,10e-4 V 15.171 Z M 31.659,25.83 c 0,-5.616 4.553,-10.169 10.169,-10.169 5.616,0 10.169,4.553 10.169,10.169 0,5.616 -4.553,10.169 -10.169,10.169 -5.616,0 -10.169,-4.553 -10.169,-10.169 z m 20.999,15.82 -4.669,-4.67 a 6.517,6.517 0 0 1 9.217,0 l 0.061,0.062 z M 73.696,25.83 c 0,5.616 -4.554,10.169 -10.17,10.169 -5.616,0 -10.169,-4.553 -10.169,-10.169 0,-5.616 4.553,-10.17 10.169,-10.17 5.616,0 10.17,4.553 10.17,10.17 z" style="fill:url(#linearGradient97)"/><path id="path369" d="m 26.267,76.014 c 14.399,0 26.071,-11.672 26.071,-26.07 0,-0.115 -0.004,-0.229 -0.005,-0.342 H 26.267 Z" style="fill:url(#linearGradient99)"/><circle id="circle371" cx="41.829" cy="25.829" r="4.152" style="fill:url(#linearGradient101)"/><circle id="circle373" cx="63.526" cy="25.829" r="4.152" style="fill:url(#linearGradient103)"/><path id="path375" d="m 33.96,15.203 c 0.025,0 0.049,0.003 0.075,0.003 V 2 H 21.002 L 21,2.171 c 0,5.773 3.757,10.662 8.957,12.375 a 13.02,13.02 0 0 0 4.003,0.657 z m 37.402,-0.032 v 0.035 l 0.035,-10e-4 a 13.07,13.07 0 0 0 4.011,-0.647 C 80.625,12.855 84.397,7.956 84.397,2.171 L 84.395,2 H 71.362 Z" style="fill:url(#linearGradient105)"/></svg></g></svg>